<svg width="536" height="91" viewBox="0 0 536 91" fill="none" xmlns="http://www.w3.org/2000/svg">
<g clip-path="url(#clip0_111_1140)">
<path d="M324.948 86.6189L341.868 73.5105L342.256 73.894C339.78 78.522 326.509 90.9912 322.609 90.9912C319.745 90.9912 317.665 89.0564 318.295 86.491L328.442 46.5182C330.392 38.8475 328.572 35.7196 324.283 35.7196C317.381 35.7196 308.666 42.9214 298.648 60.7856L291.357 89.1843L284.454 90.5992L295.671 46.5182C297.621 38.8475 295.801 35.7196 291.642 35.7196C284.48 35.7196 275.895 42.9215 265.877 60.9135L258.586 89.1843L251.684 90.5992L265.084 37.1343L249.078 47.0296L248.689 46.3904C254.043 40.4135 260.379 35.3711 267.43 31.4752C270.942 31.7394 272.504 34.1769 271.589 38.1657L267.275 54.9986C275.86 40.5095 285.878 30.8359 294.99 30.8359C301.496 30.8359 305.007 35.7196 302.013 46.9018L299.934 55.1265C308.649 40.4754 318.666 30.8359 327.778 30.8359C334.284 30.8359 337.537 35.5917 334.801 46.9018L324.948 86.6189Z" fill="black"/>
<path d="M403.666 73.5197L404.192 73.9031C401.716 78.5311 388.445 91.0003 384.545 91.0003C381.681 91.0003 379.601 89.0656 380.378 86.5002L385.322 66.7013C376.866 82.1279 366.848 91.0003 359.04 91.0003C352.404 91.0003 348.107 85.4688 348.107 73.9031C348.107 50.7632 364.243 30.8451 381.81 30.8451C383.944 30.7881 386.065 31.1961 388.022 32.0402C389.978 32.8842 391.722 34.1436 393.131 35.7287L393.648 33.8025L401.198 31.4843L387.013 86.628L403.666 73.5197ZM386.754 61.0505L391.931 40.7403C389.852 34.8338 385.814 32.5156 381.396 32.5156C366.564 32.5156 355.243 55.3913 355.243 73.4259C355.243 82.162 357.97 85.7587 362.784 85.7587C368.54 85.7672 376.866 79.5625 386.754 61.0505Z" fill="black"/>
<path d="M436.324 5.39574L416.685 86.6199L436.203 72.7359L436.6 73.2558C432.174 79.4179 418.247 90.9922 414.088 90.9922C411.612 90.9922 409.403 89.0575 410.18 86.492L429.965 5.38721H418.497L418.627 4.87585C424.718 2.30709 431.167 0.66069 437.756 -0.0078125L436.324 5.39574Z" fill="black"/>
<path d="M444.004 86.1176L456.498 37.1444L440.363 47.0397L439.975 46.4005C445.334 40.4325 451.665 35.3914 458.707 31.4852C462.219 31.7494 463.781 34.187 462.875 38.1758L450.51 86.3732L467.163 73.0007L467.689 73.5206C463.522 79.8191 454.807 88.683 447.775 91.0013C447.176 90.9931 446.587 90.8506 446.052 90.5845C445.517 90.3184 445.05 89.9357 444.687 89.4653C444.324 88.9949 444.074 88.4491 443.955 87.8691C443.837 87.2892 443.854 86.6902 444.004 86.1176ZM459.751 12.4704C459.762 10.9744 460.368 9.54264 461.439 8.48396C462.509 7.42529 463.957 6.82447 465.472 6.8111C466.144 6.78978 466.813 6.90482 467.439 7.14912C468.064 7.39343 468.632 7.76188 469.107 8.23156C469.583 8.70124 469.956 9.26221 470.203 9.87987C470.45 10.4975 470.567 11.1587 470.545 11.8226C470.525 13.338 469.898 14.7837 468.802 15.8441C467.706 16.9045 466.229 17.4933 464.695 17.4819C464.03 17.5005 463.368 17.3827 462.75 17.1358C462.133 16.8888 461.575 16.5181 461.11 16.0472C460.646 15.5762 460.285 15.0151 460.051 14.3995C459.817 13.7839 459.715 13.127 459.751 12.4704Z" fill="black"/>
<path d="M518.692 86.6182L535.613 73.6377L536.001 74.149C533.524 78.6492 520.383 90.9905 516.483 90.9905C513.489 90.9905 511.539 89.0557 512.169 86.4903L522.713 44.9748C524.275 38.932 522.316 35.7189 517.898 35.7189C509.701 35.7189 500.46 42.9208 490.443 60.9128L483.152 89.1836L476.249 90.5984L489.649 37.1336L473.634 47.0374L473.246 46.3982C478.63 40.4522 484.96 35.4143 491.987 31.483C495.499 31.7472 497.061 34.1847 496.146 38.1735L491.832 55.1343C500.546 40.4833 511.479 30.8438 521.108 30.8438C528.011 30.8438 531.255 35.8552 528.874 45.239L518.692 86.6182Z" fill="black"/>
<path d="M0 60.7271C0 44.0391 11.148 30.5898 27.4558 30.5898C34.6174 30.5898 39.8981 33.2576 43.5393 37.5446V31.749H57.9747V89.7053H43.5393V83.9096C39.8981 88.1711 34.6174 90.8644 27.4558 90.8644C11.148 90.8815 0 77.4237 0 60.7271ZM29.1039 78.2334C36.6106 78.2334 43.5393 72.5571 43.5393 60.7271C43.5393 49.366 36.6365 43.2294 29.1039 43.2294C21.2434 43.2294 15.0222 49.8348 15.0222 60.7271C15.0222 71.6195 21.2434 78.2334 29.1039 78.2334Z" fill="black"/>
<path d="M65.0156 31.749H80.2707V43.4595C83.7911 35.4565 92.8338 30.5898 103.628 30.5898V45.3091C94.7062 45.3091 80.6245 48.4455 80.2707 70.3496V89.7139H65.0156V31.749Z" fill="black"/>
<path d="M135.321 30.5898C143.087 30.5898 148.264 32.4479 152.449 35.1071V51.1046C148.816 46.7068 143.535 44.3885 136.84 44.3885C126.865 44.3885 119.712 51.6928 119.712 60.7271C119.712 69.7615 126.865 77.0743 136.84 77.0743C143.535 77.0743 148.816 75.1054 152.449 70.699V86.6967C148.229 89.3644 143.061 90.873 135.321 90.873C116.338 90.873 103.982 78.2334 103.982 60.7271C103.982 43.2209 116.304 30.5898 135.321 30.5898Z" fill="black"/>
<path d="M187.428 43.5684C180.154 43.5684 173.622 50.3868 173.622 60.3842V89.7119H158.367V2.77734H173.622V38.5739C175.761 36.1094 178.405 34.1222 181.381 32.7439C184.356 31.3656 187.594 30.6278 190.879 30.5793C205.203 30.5793 214.59 39.9547 214.59 57.2393V89.7033H199.249V59.2166C199.249 48.7844 195.055 43.5684 187.428 43.5684Z" fill="black"/>
<path d="M229.095 7.86719C234.962 7.86719 238.948 12.0435 238.948 17.3703C238.948 22.6972 234.962 26.882 229.095 26.882C223.227 26.882 219.232 22.7057 219.232 17.3703C219.232 12.035 223.227 7.86719 229.095 7.86719ZM221.579 31.7316H236.722V89.6879H221.579V31.7316Z" fill="black"/>
</g>
<defs>
<clipPath id="clip0_111_1140">
<rect width="536" height="91" fill="white"/>
</clipPath>
</defs>
</svg>
